<svg width="20" height="20" viewBox="0 0 20 20" fill="none" xmlns="http://www.w3.org/2000/svg">
<g clip-path="url(#clip0_226_6)">
<path fill-rule="evenodd" clip-rule="evenodd" d="M12.8999 14.32C11.2927 15.5686 9.26991 16.1576 7.24357 15.9671C5.21724 15.7767 3.33967 14.8211 1.99318 13.2949C0.646696 11.7687 -0.0674734 9.78666 -0.00390579 7.75238C0.0596618 5.71811 0.896186 3.78455 2.33534 2.34539C3.77449 0.906243 5.70805 0.0697192 7.74233 0.00615166C9.7766 -0.0574159 11.7586 0.656753 13.2848 2.00324C14.811 3.34973 15.7666 5.22729 15.9571 7.25363C16.1475 9.27997 15.5585 11.3027 14.3099 12.91L19.6599 18.24L18.2399 19.66L12.9099 14.32H12.8999ZM7.99994 14C8.78787 14 9.56809 13.8448 10.296 13.5433C11.024 13.2417 11.6854 12.7998 12.2426 12.2426C12.7997 11.6855 13.2417 11.0241 13.5432 10.2961C13.8447 9.56815 13.9999 8.78793 13.9999 8C13.9999 7.21207 13.8447 6.43185 13.5432 5.7039C13.2417 4.97595 12.7997 4.31451 12.2426 3.75736C11.6854 3.20021 11.024 2.75825 10.296 2.45672C9.56809 2.15519 8.78787 2 7.99994 2C6.40864 2 4.88252 2.63214 3.7573 3.75736C2.63208 4.88258 1.99994 6.4087 1.99994 8C1.99994 9.5913 2.63208 11.1174 3.7573 12.2426C4.88252 13.3679 6.40864 14 7.99994 14ZM6.99994 7H9H10.9999V9H8.99994H6.99994H4.99994V7H6.99994Z" fill="black"/>
</g>
<defs>
<clipPath id="clip0_226_6">
<rect width="20" height="20" fill="white"/>
</clipPath>
</defs>
</svg>
